<?xml version="1.0" encoding="UTF-8" standalone="no"?><!DOCTYPE svg PUBLIC "-//W3C//DTD SVG 1.1//EN" "http://www.w3.org/Graphics/SVG/1.1/DTD/svg11.dtd"><svg width="100%" height="100%" viewBox="0 0 200 200" version="1.1" xmlns="http://www.w3.org/2000/svg" xmlns:xlink="http://www.w3.org/1999/xlink" xml:space="preserve" xmlns:serif="http://www.serif.com/" style="fill-rule:evenodd;clip-rule:evenodd;stroke-linejoin:round;stroke-miterlimit:2;"><rect id="zxdocs-logo" x="0" y="0" width="200" height="200" style="fill:none;"/><g id="zxdocs-logo1" serif:id="zxdocs-logo"><g><path d="M177.571,39.667l-94.378,-0c-1.293,-0 -2.586,-0.431 -3.448,-1.724l-7.757,-10.343c-2.586,-3.448 -6.464,-5.171 -10.343,-5.171l-39.216,-0c-7.327,-0 -12.929,5.602 -12.929,12.928l0,129.286c0,7.326 5.602,12.928 12.929,12.928l155.142,0c7.327,0 12.929,-5.602 12.929,-12.928l0,-112.048c-0,-6.895 -6.033,-12.928 -12.929,-12.928Z"/><path d="M177.571,168.952l-155.142,0c-2.586,0 -4.31,-1.723 -4.31,-4.309l0,-86.191c0,-2.38 1.929,-4.309 4.31,-4.309c23.097,-0 132.045,-0 155.142,-0c2.381,-0 4.31,1.929 4.31,4.309c-0,17.994 -0,86.191 -0,86.191c-0,2.586 -2.155,4.309 -4.31,4.309Z" style="fill:#fff;"/><path d="M22.429,31.048l37.492,-0c2.586,-0 5.172,1.292 6.896,3.447l7.757,10.343c1.724,2.155 4.309,3.448 6.895,3.448l96.102,-0c2.586,-0 4.31,1.724 4.31,4.309l-0,12.929l-163.762,-0l0,-30.167c0,-2.155 1.724,-4.309 4.31,-4.309Z" style="fill:#fff;"/><clipPath id="_clip1"><path d="M22.429,31.048l37.492,-0c2.586,-0 5.172,1.292 6.896,3.447l7.757,10.343c1.724,2.155 4.309,3.448 6.895,3.448l96.102,-0c2.586,-0 4.31,1.724 4.31,4.309l-0,12.929l-163.762,-0l0,-30.167c0,-2.155 1.724,-4.309 4.31,-4.309Z"/></clipPath><g clip-path="url(#_clip1)"><g><path d="M321.624,-102.671l-380.827,380.826l13.6,13.6l380.827,-380.827l-13.6,-13.599Z" style="fill:#0dcaf2;"/><path d="M308.025,-116.271l-380.827,380.827l13.599,13.599l380.827,-380.826l-13.599,-13.6Z" style="fill:#43f20d;"/><path d="M294.426,-129.87l-380.827,380.827l13.599,13.599l380.827,-380.827l-13.599,-13.599Z" style="fill:#ffed00;"/><path d="M280.827,-143.469l-380.827,380.827l13.599,13.599l380.827,-380.827l-13.599,-13.599Z" style="fill:#f20d0d;"/></g></g></g><g transform="matrix(7.94356,0,0,7.94356,-124.535,-505.14)"><g transform="matrix(11.5823,0,0,11.5823,19,78.4747)"><path d="M0.05,-0.3l0.35,0l0,0.05l-0.05,0l-0,0.05l-0.05,0l-0,0.05l-0.05,0l-0,0.05l-0.05,0l-0,0.05l0.2,0l-0,0.05l-0.35,0l-0,-0.05l0.05,0l-0,-0.05l0.05,0l-0,-0.05l0.05,0l-0,-0.05l0.05,0l-0,-0.05l-0.2,0l-0,-0.05Z" style="fill-rule:nonzero;"/></g><g transform="matrix(11.5823,0,0,11.5823,23.6329,78.4747)"><path d="M0.05,-0.3l0.1,0l-0,0.05l0.05,0l0,0.05l0.05,0l0,-0.05l0.05,0l0,-0.05l0.1,0l0,0.05l-0.05,0l-0,0.05l-0.05,0l-0,0.1l0.05,0l-0,0.05l0.05,0l0,0.05l-0.1,-0l-0,-0.05l-0.05,0l-0,-0.05l-0.05,0l-0,0.05l-0.05,0l-0,0.05l-0.1,-0l-0,-0.05l0.05,0l-0,-0.05l0.05,0l-0,-0.1l-0.05,0l-0,-0.05l-0.05,0l-0,-0.05Z" style="fill-rule:nonzero;"/></g><g transform="matrix(11.5823,0,0,11.5823,19,82.6749)"><path d="M0.05,-0.3l0.25,0l0,0.05l0.05,0l0,0.05l0.05,0l0,0.1l-0.05,0l0,0.05l-0.05,0l0,0.05l-0.25,-0l0,-0.3Zm0.1,0.25l0.1,-0l0,-0.05l0.05,-0l0,-0.1l-0.05,0l0,-0.05l-0.1,0l0,0.2Z" style="fill-rule:nonzero;"/></g><g transform="matrix(11.5823,0,0,11.5823,23.6329,82.6749)"><path d="M0.05,-0.25l0.05,0l0,-0.05l0.25,0l0,0.05l0.05,0l0,0.2l-0.05,-0l0,0.05l-0.25,-0l0,-0.05l-0.05,-0l0,-0.2Zm0.1,0.2l0.15,-0l0,-0.2l-0.15,0l0,0.2Z" style="fill-rule:nonzero;"/></g><g transform="matrix(11.5823,0,0,11.5823,28.2658,82.6749)"><path d="M0.05,-0.25l0.05,0l0,-0.05l0.25,0l0,0.05l0.05,0l0,0.05l-0.1,0l0,-0.05l-0.15,0l0,0.2l0.15,-0l0,-0.05l0.1,-0l0,0.05l-0.05,-0l0,0.05l-0.25,-0l0,-0.05l-0.05,-0l0,-0.2Z" style="fill-rule:nonzero;"/></g><g transform="matrix(11.5823,0,0,11.5823,32.8988,82.6749)"><path d="M0.05,-0.25l0.05,0l0,-0.05l0.25,0l0,0.05l-0.2,0l0,0.05l0.2,0l0,0.05l0.05,0l0,0.1l-0.05,0l0,0.05l-0.25,0l0,-0.05l-0.05,0l0,-0.05l0.1,0l0,0.05l0.15,0l0,-0.1l-0.2,0l0,-0.05l-0.05,0l0,-0.05Z" style="fill-rule:nonzero;"/></g></g></g></svg>